<svg width="19" height="13" viewBox="0 0 19 13" fill="none" xmlns="http://www.w3.org/2000/svg">
<path fill-rule="evenodd" clip-rule="evenodd" d="M11.189 0.433408C11.2327 0.326684 11.302 0.232486 11.3907 0.159201C11.4794 0.0859156 11.5847 0.0358179 11.6973 0.0133682C11.8099 -0.00908143 11.9262 -0.0031863 12.036 0.0305287C12.1458 0.0642436 12.2455 0.124732 12.3265 0.206608L17.8952 5.80661C17.96 5.87163 18.0115 5.94888 18.0466 6.03392C18.0816 6.11896 18.0997 6.21013 18.0997 6.30221C18.0997 6.39428 18.0816 6.48545 18.0466 6.5705C18.0115 6.65554 17.96 6.73278 17.8952 6.79781L12.3265 12.3978C12.1957 12.5292 12.0185 12.6031 11.8336 12.6031C11.6488 12.6031 11.4715 12.5292 11.3408 12.3978C11.2101 12.2664 11.1366 12.0881 11.1366 11.9022C11.1366 11.7163 11.2101 11.538 11.3408 11.4066L15.722 7.00221H0.696095C0.511479 7.00221 0.334425 6.92846 0.203881 6.79718C0.0733383 6.66591 0 6.48786 0 6.30221C0 6.11656 0.0733383 5.93851 0.203881 5.80723C0.334425 5.67596 0.511479 5.60221 0.696095 5.60221H15.722L11.3408 1.19781C11.243 1.09988 11.1763 0.974921 11.1493 0.838814C11.1223 0.702708 11.1361 0.561596 11.189 0.433408Z" fill="#2E2A39"/>
</svg>
