<svg width="44" height="44" viewBox="0 0 44 44" fill="none" xmlns="http://www.w3.org/2000/svg">
<path fill-rule="evenodd" clip-rule="evenodd" d="M16.3357 13H12.8597L12.0127 25.76C11.9615 26.5122 12.0654 27.2669 12.318 27.9772C12.5707 28.6875 12.9667 29.3383 13.4814 29.8892C13.9962 30.44 14.6187 30.8792 15.3103 31.1793C16.0019 31.4795 16.7478 31.6342 17.5017 31.634H25.6197C26.3727 31.6341 27.1176 31.4797 27.8084 31.1802C28.4992 30.8807 29.1212 30.4426 29.6358 29.8929C30.1503 29.3433 30.5466 28.6938 30.8 27.9848C31.0533 27.2758 31.1584 26.5223 31.1087 25.771L30.2507 13H16.3357ZM16.3357 14.1H13.8937L13.1127 25.837C13.072 26.4384 13.1554 27.0417 13.3575 27.6096C13.5596 28.1774 13.8763 28.6977 14.2878 29.1381C14.6993 29.5785 15.197 29.9296 15.7498 30.1698C16.3027 30.4099 16.899 30.5339 17.5017 30.534H25.6197C26.2234 30.5354 26.8209 30.4125 27.3751 30.1731C27.9292 29.9336 28.4282 29.5827 28.8409 29.1421C29.2536 28.7015 29.5713 28.1807 29.7741 27.6122C29.9769 27.0436 30.0605 26.4393 30.0197 25.837L29.2277 14.1H26.7857V14.793C26.7857 15.4792 26.6506 16.1586 26.388 16.7925C26.1254 17.4264 25.7406 18.0024 25.2554 18.4876C24.7702 18.9728 24.1942 19.3577 23.5603 19.6203C22.9263 19.8829 22.2469 20.018 21.5607 20.018C20.8746 20.018 20.1951 19.8829 19.5612 19.6203C18.9273 19.3577 18.3513 18.9728 17.8661 18.4876C17.3809 18.0024 16.996 17.4264 16.7335 16.7925C16.4709 16.1586 16.3357 15.4792 16.3357 14.793V14.1ZM25.6857 14.1H17.4357V14.793C17.4357 15.887 17.8703 16.9362 18.6439 17.7098C19.4175 18.4834 20.4667 18.918 21.5607 18.918C22.6547 18.918 23.704 18.4834 24.4775 17.7098C25.2511 16.9362 25.6857 15.887 25.6857 14.793V14.1Z" fill="#2E2A39"/>
</svg>
