<svg width="20" height="19" viewBox="0 0 20 19" fill="none" xmlns="http://www.w3.org/2000/svg">
<path fill-rule="evenodd" clip-rule="evenodd" d="M4.53511 0H0.899267L0.0133166 13.0106C-0.0403077 13.7776 0.0683946 14.5471 0.332672 15.2714C0.596949 15.9956 1.01116 16.6592 1.54957 17.2209C2.08799 17.7826 2.73912 18.2303 3.46252 18.5364C4.18592 18.8424 4.96614 19.0002 5.75473 19H14.246C15.0336 19.0001 15.8128 18.8426 16.5354 18.5373C17.2579 18.2319 17.9085 17.7852 18.4468 17.2247C18.985 16.6643 19.3995 16.0021 19.6645 15.2791C19.9295 14.5562 20.0394 13.7879 19.9875 13.0218L19.09 0H4.53511ZM4.53511 1.12161H1.98082L1.1639 13.0891C1.12134 13.7023 1.20848 14.3175 1.41992 14.8965C1.63135 15.4755 1.96256 16.006 2.39301 16.4551C2.82346 16.9041 3.34397 17.2622 3.92226 17.507C4.50054 17.7519 5.12426 17.8783 5.75473 17.8784H14.246C14.8775 17.8798 15.5025 17.7545 16.0821 17.5104C16.6617 17.2662 17.1836 16.9084 17.6153 16.4592C18.047 16.0099 18.3793 15.4789 18.5914 14.8992C18.8035 14.3194 18.891 13.7033 18.8484 13.0891L18.02 1.12161H15.4657V1.82822C15.4657 2.52785 15.3243 3.22063 15.0496 3.86701C14.775 4.51339 14.3724 5.1007 13.8649 5.59542C13.3574 6.09013 12.7549 6.48256 12.0919 6.7503C11.4288 7.01804 10.7181 7.15584 10.0004 7.15584C9.28268 7.15584 8.57199 7.01804 7.90892 6.7503C7.24584 6.48256 6.64335 6.09013 6.13585 5.59542C5.62836 5.1007 5.22579 4.51339 4.95113 3.86701C4.67648 3.22063 4.53511 2.52785 4.53511 1.82822V1.12161ZM14.3151 1.12161H5.6857V1.82822C5.6857 2.94372 6.14028 4.01354 6.94944 4.80232C7.7586 5.5911 8.85606 6.03424 10.0004 6.03424C11.1447 6.03424 12.2422 5.5911 13.0513 4.80232C13.8605 4.01354 14.3151 2.94372 14.3151 1.82822V1.12161Z" fill="#2E2A39"/>
</svg>
