<svg width="15" height="11" viewBox="0 0 15 11" fill="none" xmlns="http://www.w3.org/2000/svg">
<g clip-path="url(#clip0_23_838)">
<path fill-rule="evenodd" clip-rule="evenodd" d="M9.23471 1.77511C9.26853 1.70737 9.32211 1.64757 9.3907 1.60106C9.45929 1.55454 9.54075 1.52274 9.62784 1.50849C9.71492 1.49424 9.80493 1.49798 9.88984 1.51938C9.97474 1.54078 10.0519 1.57918 10.1145 1.63115L14.4219 5.18583C14.472 5.22711 14.5118 5.27614 14.539 5.33012C14.5661 5.3841 14.5801 5.44198 14.5801 5.50042C14.5801 5.55887 14.5661 5.61674 14.539 5.67072C14.5118 5.7247 14.472 5.77374 14.4219 5.81501L10.1145 9.36969C10.0134 9.45313 9.87627 9.5 9.73329 9.5C9.59032 9.5 9.45319 9.45313 9.35209 9.36969C9.25099 9.28626 9.19419 9.1731 9.19419 9.0551C9.19419 8.93711 9.25099 8.82395 9.35209 8.74051L12.7409 5.94476H1.1185C0.975704 5.94476 0.838753 5.89794 0.737779 5.81461C0.636805 5.73128 0.580078 5.61827 0.580078 5.50042C0.580078 5.38258 0.636805 5.26956 0.737779 5.18623C0.838753 5.1029 0.975704 5.05608 1.1185 5.05608H12.7409L9.35209 2.26033C9.27644 2.19816 9.22489 2.11885 9.20399 2.03245C9.18309 1.94605 9.19379 1.85648 9.23471 1.77511Z" fill="#2E2A39" fill-opacity="0.75"/>
</g>
<defs>
<clipPath id="clip0_23_838">
<rect width="14" height="10" fill="white" transform="translate(0.580078 0.5)"/>
</clipPath>
</defs>
</svg>
