<svg width="20" height="19" viewBox="0 0 20 19" fill="none" xmlns="http://www.w3.org/2000/svg">
<path fill-rule="evenodd" clip-rule="evenodd" d="M11.4455 11.9293C10.8801 12.4947 10.2089 12.9432 9.47022 13.2492C8.73152 13.5552 7.93979 13.7126 7.14023 13.7126C6.34067 13.7126 5.54894 13.5552 4.81024 13.2492C4.07154 12.9432 3.40034 12.4947 2.83497 11.9293C2.26959 11.364 1.82111 10.6928 1.51513 9.95407C1.20915 9.21538 1.05167 8.42364 1.05167 7.62408C1.05167 6.82452 1.20915 6.03279 1.51513 5.29409C1.82111 4.55539 2.26959 3.88419 2.83497 3.31882C3.97679 2.17699 5.52544 1.53552 7.14023 1.53552C8.75502 1.53552 10.3037 2.17699 11.4455 3.31882C12.5873 4.46065 13.2288 6.00929 13.2288 7.62408C13.2288 9.23887 12.5873 10.7875 11.4455 11.9293ZM11.7192 13.1083C10.3032 14.2942 8.48252 14.885 6.63998 14.7564C4.79744 14.6278 3.07651 13.7899 1.83894 12.4188C0.601378 11.0477 -0.0564296 9.25016 0.00379925 7.40412C0.0640281 5.55808 0.837602 3.80728 2.16191 2.51976C3.48621 1.23224 5.2581 0.508285 7.10511 0.500071C8.95211 0.491857 10.7304 1.20003 12.0661 2.47572C13.4018 3.75141 14.1909 5.49525 14.2675 7.34069C14.3442 9.18612 13.7024 10.9894 12.4771 12.3715L18.1613 18.0557C18.216 18.1032 18.2603 18.1616 18.2914 18.2271C18.3225 18.2926 18.3398 18.3639 18.342 18.4364C18.3443 18.5089 18.3316 18.581 18.3046 18.6484C18.2777 18.7157 18.2371 18.7767 18.1855 18.8277C18.1339 18.8786 18.0722 18.9183 18.0045 18.9443C17.9368 18.9702 17.8645 18.9819 17.792 18.9786C17.7196 18.9753 17.6486 18.9571 17.5835 18.9251C17.5185 18.893 17.4607 18.8479 17.4139 18.7925L11.7192 13.1083Z" fill="#2E2A39"/>
</svg>
