<svg width="44" height="44" viewBox="0 0 44 44" fill="none" xmlns="http://www.w3.org/2000/svg">
<path fill-rule="evenodd" clip-rule="evenodd" d="M24.4455 24.4293C23.8801 24.9947 23.2089 25.4432 22.4702 25.7492C21.7315 26.0552 20.9398 26.2126 20.1402 26.2126C19.3407 26.2126 18.5489 26.0552 17.8102 25.7492C17.0715 25.4432 16.4003 24.9947 15.835 24.4293C15.2696 23.864 14.8211 23.1928 14.5151 22.4541C14.2092 21.7154 14.0517 20.9236 14.0517 20.1241C14.0517 19.3245 14.2092 18.5328 14.5151 17.7941C14.8211 17.0554 15.2696 16.3842 15.835 15.8188C16.9768 14.677 18.5254 14.0355 20.1402 14.0355C21.755 14.0355 23.3037 14.677 24.4455 15.8188C25.5873 16.9606 26.2288 18.5093 26.2288 20.1241C26.2288 21.7389 25.5873 23.2875 24.4455 24.4293ZM24.7192 25.6083C23.3032 26.7942 21.4825 27.385 19.64 27.2564C17.7974 27.1278 16.0765 26.2899 14.8389 24.9188C13.6014 23.5477 12.9436 21.7502 13.0038 19.9041C13.064 18.0581 13.8376 16.3073 15.1619 15.0198C16.4862 13.7322 18.2581 13.0083 20.1051 13.0001C21.9521 12.9919 23.7304 13.7 25.0661 14.9757C26.4018 16.2514 27.1909 17.9953 27.2675 19.8407C27.3442 21.6861 26.7024 23.4894 25.4771 24.8715L31.1613 30.5557C31.216 30.6032 31.2603 30.6616 31.2914 30.7271C31.3225 30.7926 31.3398 30.8639 31.342 30.9364C31.3443 31.0089 31.3316 31.081 31.3046 31.1484C31.2777 31.2157 31.2371 31.2767 31.1855 31.3277C31.1339 31.3786 31.0722 31.4183 31.0045 31.4443C30.9368 31.4702 30.8645 31.4819 30.792 31.4786C30.7196 31.4753 30.6486 31.4571 30.5835 31.4251C30.5185 31.393 30.4607 31.3479 30.4139 31.2925L24.7192 25.6083Z" fill="#2E2A39"/>
</svg>
