<svg width="18" height="18" viewBox="0 0 18 18" fill="none" xmlns="http://www.w3.org/2000/svg">
<g clip-path="url(#clip0_2281_7)">
<path d="M8.98039 0.579971C11.1925 0.589881 13.3119 1.46996 14.8804 3.02997C16.1704 4.33556 16.9985 6.02692 17.2386 7.84656C17.4787 9.6662 17.1176 11.5145 16.2104 13.11C15.4812 14.3812 14.4277 15.4361 13.1575 16.1669C11.8873 16.8978 10.4458 17.2784 8.98039 17.27C8.17926 17.2755 7.38136 17.1678 6.61039 16.95C7.03039 16.27 7.31039 15.66 7.46039 15.15L8.05039 12.86C8.19039 13.14 8.46039 13.38 8.85039 13.59C9.25039 13.79 9.65039 13.9 10.0904 13.9C10.9604 13.9 11.7404 13.65 12.4304 13.15C13.1397 12.6243 13.6927 11.9157 14.0304 11.1C14.4167 10.1723 14.6074 9.17477 14.5904 8.16997C14.5904 6.86997 14.0904 5.75997 13.1004 4.80997C12.593 4.33219 11.9959 3.95979 11.3436 3.71433C10.6914 3.46887 9.99688 3.35522 9.30039 3.37997C8.37039 3.37997 7.50039 3.53997 6.72039 3.85997C5.75258 4.22776 4.9157 4.87453 4.31577 5.71834C3.71584 6.56216 3.37986 7.56505 3.35039 8.59997C3.35039 9.34997 3.49039 10.01 3.78039 10.58C4.06039 11.14 4.48039 11.54 5.05039 11.78C5.15039 11.82 5.24039 11.82 5.31039 11.78C5.38039 11.75 5.43039 11.68 5.46039 11.58L5.64039 10.9C5.69039 10.75 5.66039 10.6 5.53039 10.45C5.14042 9.99866 4.93665 9.41595 4.96039 8.81997C4.95164 8.27941 5.05366 7.74278 5.26018 7.24315C5.4667 6.74352 5.77334 6.29146 6.16121 5.91484C6.54907 5.53822 7.00994 5.245 7.51543 5.05327C8.02092 4.86153 8.56032 4.77533 9.10039 4.79997C10.1904 4.79997 11.0404 5.09997 11.6404 5.68997C12.2504 6.28997 12.5604 7.05997 12.5604 8.00997C12.5604 8.80997 12.4504 9.54997 12.2304 10.22C12.0537 10.8263 11.7348 11.3816 11.3004 11.84C10.9004 12.24 10.4304 12.44 9.90039 12.44C9.47039 12.44 9.12039 12.29 8.84039 11.97C8.57039 11.65 8.48039 11.27 8.58039 10.84C8.73305 10.3055 8.88973 9.77212 9.05039 9.23997L9.23039 8.50997C9.29039 8.24997 9.32039 8.03997 9.32039 7.85997C9.32039 7.49997 9.22039 7.19997 9.04039 6.96997C8.84039 6.73997 8.57039 6.61997 8.21039 6.61997C7.76039 6.61997 7.38039 6.81997 7.08039 7.23997C6.78039 7.64997 6.62039 8.16997 6.62039 8.79997C6.62539 9.18991 6.686 9.57715 6.80039 9.94997L6.86039 10.1C6.26039 12.68 5.91039 14.2 5.78039 14.64C5.66039 15.19 5.62039 15.84 5.65039 16.58C4.16745 15.9236 2.90622 14.8519 2.01898 13.4945C1.13173 12.137 0.656409 10.5517 0.650391 8.92997C0.650391 6.62997 1.46039 4.64997 3.09039 3.02997C3.8522 2.23954 4.76782 1.61349 5.7808 1.19041C6.79379 0.767328 7.88269 0.556177 8.98039 0.569971V0.579971Z" fill="#2E2A39"/>
</g>
<defs>
<clipPath id="clip0_2281_7">
<rect width="18" height="18" fill="white"/>
</clipPath>
</defs>
</svg>
