<svg width="18" height="18" viewBox="0 0 18 18" fill="none" xmlns="http://www.w3.org/2000/svg">
<g clip-path="url(#clip0_2281_12)">
<path d="M8.02024 0H11.0002C11.0002 0 10.8302 3.82 15.1302 4.1V7.05C15.1302 7.05 12.8302 7.19 11.0002 5.79L11.0302 11.89C11.0302 12.9822 10.7062 14.0498 10.0992 14.9578C9.49226 15.8658 8.62956 16.5733 7.62033 16.9908C6.6111 17.4083 5.5007 17.517 4.42966 17.3032C3.35861 17.0894 2.37506 16.5627 1.60347 15.7897C0.831884 15.0167 0.306945 14.0322 0.0950857 12.9608C-0.116774 11.8893 -0.00603196 10.7791 0.413298 9.77065C0.832627 8.76218 1.5417 7.90076 2.45077 7.29542C3.35984 6.69008 4.42806 6.36802 5.52024 6.37H6.29024V9.4C5.78783 9.24432 5.24912 9.25106 4.75077 9.41927C4.25241 9.58747 3.81981 9.90858 3.51451 10.3369C3.20921 10.7652 3.04678 11.2789 3.05032 11.8048C3.05387 12.3308 3.22321 12.8422 3.53425 13.2664C3.8453 13.6905 4.28219 14.0058 4.78277 14.1673C5.28334 14.3287 5.8221 14.3282 6.32236 14.1658C6.82262 14.0033 7.25891 13.6872 7.56913 13.2625C7.87935 12.8377 8.04771 12.326 8.05024 11.8L8.02024 0Z" fill="#2E2A39"/>
</g>
<defs>
<clipPath id="clip0_2281_12">
<rect width="18" height="18" fill="white"/>
</clipPath>
</defs>
</svg>
