<svg width="18" height="18" viewBox="0 0 18 18" fill="none" xmlns="http://www.w3.org/2000/svg">
<path d="M17.64 4.10016C17.1663 4.80348 16.5742 5.41928 15.89 5.92016C15.89 5.97016 15.89 6.05016 15.91 6.15016L15.93 6.38016C15.9273 8.35337 15.3391 10.2814 14.24 11.9202C13.67 12.7702 13 13.5402 12.22 14.2002C11.3835 14.8982 10.4283 15.4401 9.4 15.8002C7.93929 16.3223 6.37898 16.5054 4.83709 16.3356C3.2952 16.1658 1.8121 15.6476 0.5 14.8202C0.84 14.8402 1.11 14.8602 1.33 14.8602C2.97 14.8602 4.43 14.3602 5.71 13.3602C4.97566 13.3373 4.2659 13.0903 3.676 12.6524C3.08611 12.2144 2.64434 11.6065 2.41 10.9102C2.93528 11.0383 3.48587 11.0175 4 10.8502C3.20622 10.6946 2.49172 10.2666 1.98 9.64016C1.4545 9.02076 1.1704 8.23239 1.18 7.42016V7.39016C1.64 7.63016 2.16 7.76016 2.76 7.79016C2.28257 7.47279 1.89175 7.04144 1.62287 6.53511C1.354 6.02879 1.21553 5.46343 1.22 4.89016C1.22 4.28016 1.36 3.69016 1.67 3.10016C2.53757 4.18657 3.62899 5.07335 4.87 5.70016C6.13846 6.34285 7.52939 6.70763 8.95 6.77016C8.87068 6.5106 8.82695 6.24148 8.82 5.97016C8.82 5.00016 9.16 4.17016 9.85 3.49016C10.1817 3.1528 10.5793 2.88728 11.0179 2.71008C11.4566 2.53289 11.927 2.44782 12.4 2.46016C12.876 2.4606 13.3469 2.55841 13.7837 2.74758C14.2205 2.93675 14.614 3.21328 14.94 3.56016C15.74 3.41016 16.48 3.12016 17.17 2.71016C16.9189 3.52746 16.369 4.22013 15.63 4.65016C16.37 4.55016 17.03 4.37016 17.64 4.11016V4.10016Z" fill="#2E2A39"/>
</svg>
