<svg width="18" height="18" viewBox="0 0 18 18" fill="none" xmlns="http://www.w3.org/2000/svg">
<g clip-path="url(#clip0_2281_5)">
<path d="M16.4205 0.609863C16.6905 0.609863 16.9205 0.709863 17.1105 0.889863C17.3005 1.08986 17.3905 1.30986 17.3905 1.58986V17.0299C17.3905 17.2999 17.2905 17.5299 17.1105 17.7199C17.0194 17.8123 16.9103 17.8849 16.7898 17.9331C16.6693 17.9813 16.5402 18.004 16.4105 17.9999H12.0205V11.2999H14.2705L14.5805 8.64986H12.0205V6.94986C12.0205 6.54986 12.1205 6.22986 12.3005 6.01986C12.4805 5.81986 12.8005 5.69986 13.3005 5.69986H14.6705V3.34986C14.0705 3.28986 13.4005 3.24986 12.6605 3.24986C11.6505 3.24986 10.8305 3.54986 10.2105 4.14986C9.59049 4.74986 9.28049 5.58986 9.28049 6.67986V8.64986H7.04048V11.2999H9.28049V17.9999H0.980485C0.700485 17.9999 0.480485 17.8999 0.280485 17.7199C0.188029 17.6288 0.115421 17.5196 0.0672319 17.3992C0.0190431 17.2787 -0.00368272 17.1495 0.000485094 17.0199V1.58986C0.000485094 1.31986 0.100485 1.08986 0.280485 0.899863C0.371521 0.807407 0.480712 0.734799 0.601184 0.68661C0.721656 0.638421 0.8508 0.615695 0.980485 0.619863H16.4205V0.609863Z" fill="#2E2A39"/>
</g>
<defs>
<clipPath id="clip0_2281_5">
<rect width="18" height="18" fill="white"/>
</clipPath>
</defs>
</svg>
