<svg width="18" height="18" viewBox="0 0 18 18" fill="none" xmlns="http://www.w3.org/2000/svg">
<g clip-path="url(#clip0_2281_9)">
<path d="M8.77 1.57996C11.11 1.57996 11.39 1.58996 12.31 1.62996C13.17 1.66996 13.63 1.80996 13.94 1.92996C14.35 2.09996 14.64 2.27996 14.95 2.58996C15.25 2.88996 15.45 3.18996 15.6 3.58996C15.72 3.90996 15.87 4.36996 15.9 5.22996C15.95 6.14996 15.96 6.42996 15.96 8.76996C15.96 11.11 15.95 11.39 15.91 12.31C15.9055 12.8666 15.804 13.4182 15.61 13.94C15.44 14.35 15.26 14.64 14.95 14.95C14.65 15.25 14.35 15.45 13.94 15.61C13.63 15.73 13.17 15.87 12.31 15.91C11.39 15.95 11.11 15.96 8.77 15.96C6.43 15.96 6.15 15.96 5.22 15.91C4.66673 15.9043 4.11862 15.8028 3.6 15.61C3.18 15.45 2.9 15.26 2.59 14.95C2.28 14.65 2.09 14.35 1.93 13.95C1.73647 13.4246 1.63499 12.8698 1.63 12.31C1.59 11.39 1.58 11.11 1.58 8.76996C1.58 6.42996 1.58 6.14996 1.63 5.22996C1.67 4.36996 1.81 3.90996 1.93 3.59996C2.09 3.18996 2.28 2.89996 2.59 2.58996C2.89 2.28996 3.19 2.08996 3.59 1.93996C3.91 1.81996 4.37 1.66996 5.22 1.63996C6.15 1.58996 6.42 1.57996 8.77 1.57996ZM8.77 -4.40706e-05C6.39 -4.40706e-05 6.09 0.00995593 5.15 0.0499559C4.22 0.0899559 3.58 0.249956 3.02 0.449956C2.45 0.679956 1.96 0.989956 1.47 1.46996C1 1.95996 0.7 2.44996 0.46 3.01996C0.24 3.57996 0.09 4.21996 0.06 5.14996C0 6.09996 0 6.39996 0 8.76996C0 11.14 0.01 11.45 0.05 12.38C0.09 13.32 0.25 13.95 0.45 14.51C0.68 15.09 0.99 15.58 1.47 16.07C1.96 16.55 2.45 16.85 3.02 17.08C3.58 17.3 4.22 17.45 5.15 17.48C6.09 17.53 6.39 17.54 8.77 17.54C11.16 17.54 11.45 17.53 12.39 17.49C13.32 17.45 13.96 17.29 14.52 17.08C15.1043 16.8606 15.6333 16.5158 16.07 16.07C16.56 15.58 16.86 15.09 17.08 14.51C17.3 13.96 17.45 13.32 17.49 12.38C17.53 11.45 17.54 11.15 17.54 8.76996C17.54 6.37996 17.54 6.08996 17.49 5.14996C17.4774 4.42252 17.3421 3.70242 17.09 3.01996C16.8677 2.43477 16.5195 1.90561 16.07 1.46996C15.6317 1.02605 15.1031 0.68159 14.52 0.459956C13.8383 0.203655 13.1181 0.0650164 12.39 0.0499559C11.184 0.00163053 9.9769 -0.0150419 8.77 -4.40706e-05Z" fill="#2E2A39"/>
<path d="M8.7998 3.9999C7.60633 3.9999 6.46174 4.47401 5.61782 5.31792C4.77391 6.16184 4.2998 7.30643 4.2998 8.4999C4.2998 9.69338 4.77391 10.838 5.61782 11.6819C6.46174 12.5258 7.60633 12.9999 8.7998 12.9999C9.99328 12.9999 11.1379 12.5258 11.9818 11.6819C12.8257 10.838 13.2998 9.69338 13.2998 8.4999C13.2998 7.30643 12.8257 6.16184 11.9818 5.31792C11.1379 4.47401 9.99328 3.9999 8.7998 3.9999ZM8.7998 11.4299C8.41569 11.4299 8.03533 11.3542 7.68046 11.2073C7.32558 11.0603 7.00313 10.8448 6.73152 10.5732C6.45991 10.3016 6.24445 9.97913 6.09746 9.62425C5.95046 9.26937 5.8748 8.88902 5.8748 8.5049C5.8748 8.12079 5.95046 7.74043 6.09746 7.38555C6.24445 7.03068 6.45991 6.70823 6.73152 6.43661C7.00313 6.165 7.32558 5.94955 7.68046 5.80255C8.03533 5.65556 8.41569 5.5799 8.7998 5.5799C9.57556 5.5799 10.3195 5.88807 10.8681 6.43661C11.4166 6.98516 11.7248 7.72914 11.7248 8.5049C11.7248 9.28066 11.4166 10.0246 10.8681 10.5732C10.3195 11.1217 9.57556 11.4299 8.7998 11.4299ZM13.4298 4.9999C13.7083 4.9999 13.9754 4.88928 14.1723 4.69236C14.3692 4.49545 14.4798 4.22838 14.4798 3.9499C14.4798 3.67142 14.3692 3.40435 14.1723 3.20744C13.9754 3.01053 13.7083 2.8999 13.4298 2.8999C13.1513 2.8999 12.8843 3.01053 12.6873 3.20744C12.4904 3.40435 12.3798 3.67142 12.3798 3.9499C12.3798 4.22838 12.4904 4.49545 12.6873 4.69236C12.8843 4.88928 13.1513 4.9999 13.4298 4.9999Z" fill="#2E2A39"/>
</g>
<defs>
<clipPath id="clip0_2281_9">
<rect width="18" height="18" fill="white"/>
</clipPath>
</defs>
</svg>
